<svg width="1803" height="324" viewBox="0 0 1803 324" fill="none" xmlns="http://www.w3.org/2000/svg">
<g opacity="0.05">
<path d="M15.552 250L15.552 89.08H44.928L44.928 224.08H113.832V250H15.552ZM181.433 252.592C169.913 252.592 159.401 249.928 149.897 244.6C140.537 239.272 133.049 232 127.433 222.784C121.961 213.568 119.225 203.056 119.225 191.248C119.225 179.44 121.961 168.928 127.433 159.712C133.049 150.496 140.537 143.224 149.897 137.896C159.257 132.568 169.769 129.904 181.433 129.904C192.953 129.904 203.393 132.568 212.753 137.896C222.113 143.224 229.529 150.496 235.001 159.712C240.617 168.784 243.425 179.296 243.425 191.248C243.425 203.056 240.617 213.568 235.001 222.784C229.385 232 221.897 239.272 212.537 244.6C203.177 249.928 192.809 252.592 181.433 252.592ZM181.433 226.672C187.769 226.672 193.313 225.16 198.065 222.136C202.961 219.112 206.777 214.936 209.513 209.608C212.393 204.136 213.833 198.016 213.833 191.248C213.833 184.336 212.393 178.288 209.513 173.104C206.777 167.776 202.961 163.6 198.065 160.576C193.313 157.408 187.769 155.824 181.433 155.824C174.953 155.824 169.265 157.408 164.369 160.576C159.473 163.6 155.585 167.776 152.705 173.104C149.969 178.288 148.601 184.336 148.601 191.248C148.601 198.016 149.969 204.136 152.705 209.608C155.585 214.936 159.473 219.112 164.369 222.136C169.265 225.16 174.953 226.672 181.433 226.672ZM258.403 250V132.496H284.971V155.608L282.811 151.504C285.547 144.448 290.011 139.12 296.203 135.52C302.539 131.776 309.883 129.904 318.235 129.904C326.875 129.904 334.508 131.776 341.132 135.52C347.899 139.264 353.155 144.52 356.899 151.288C360.644 157.912 362.516 165.616 362.516 174.4V250H334.219V181.096C334.219 175.912 333.211 171.448 331.196 167.704C329.179 163.96 326.371 161.08 322.771 159.064C319.315 156.904 315.211 155.824 310.459 155.824C305.851 155.824 301.747 156.904 298.147 159.064C294.547 161.08 291.739 163.96 289.723 167.704C287.707 171.448 286.699 175.912 286.699 181.096V250H258.403ZM436.987 297.52C428.203 297.52 420.067 296.08 412.579 293.2C405.091 290.32 398.611 286.288 393.139 281.104C387.811 276.064 383.923 270.088 381.475 263.176L407.827 253.24C409.555 258.712 412.939 263.104 417.979 266.416C423.163 269.872 429.499 271.6 436.987 271.6C442.747 271.6 447.787 270.52 452.107 268.36C456.571 266.2 460.027 263.032 462.475 258.856C464.923 254.824 466.147 249.928 466.147 244.168V217.384L471.547 223.864C467.515 230.92 462.115 236.248 455.347 239.848C448.579 243.448 440.875 245.248 432.235 245.248C421.291 245.248 411.499 242.728 402.859 237.688C394.219 232.648 387.451 225.736 382.555 216.952C377.659 208.168 375.211 198.304 375.211 187.36C375.211 176.272 377.659 166.408 382.555 157.768C387.451 149.128 394.147 142.36 402.643 137.464C411.139 132.424 420.787 129.904 431.587 129.904C440.371 129.904 448.075 131.776 454.699 135.52C461.467 139.12 467.083 144.376 471.547 151.288L467.659 158.416V132.496H494.443V244.168C494.443 254.392 491.923 263.536 486.883 271.6C481.987 279.664 475.219 286 466.579 290.608C458.083 295.216 448.219 297.52 436.987 297.52ZM435.691 219.112C441.739 219.112 446.995 217.816 451.459 215.224C456.067 212.488 459.667 208.744 462.259 203.992C464.851 199.24 466.147 193.768 466.147 187.576C466.147 181.528 464.779 176.128 462.043 171.376C459.451 166.48 455.851 162.664 451.243 159.928C446.779 157.192 441.595 155.824 435.691 155.824C429.787 155.824 424.459 157.192 419.707 159.928C414.955 162.664 411.211 166.48 408.475 171.376C405.883 176.128 404.587 181.528 404.587 187.576C404.587 193.624 405.883 199.024 408.475 203.776C411.211 208.528 414.883 212.272 419.491 215.008C424.243 217.744 429.643 219.112 435.691 219.112ZM606.131 252.592C595.907 252.592 586.403 250.72 577.619 246.976C568.979 243.232 561.491 238.048 555.155 231.424C548.963 224.656 544.427 216.808 541.547 207.88L565.955 197.296C569.843 206.512 575.459 213.784 582.803 219.112C590.147 224.296 598.427 226.888 607.643 226.888C612.827 226.888 617.291 226.096 621.035 224.512C624.923 222.784 627.875 220.48 629.891 217.6C632.051 214.72 633.131 211.264 633.131 207.232C633.131 202.48 631.691 198.592 628.811 195.568C626.075 192.4 621.899 189.952 616.283 188.224L585.395 178.288C572.867 174.4 563.435 168.568 557.099 160.792C550.763 153.016 547.595 143.872 547.595 133.36C547.595 124.144 549.827 116.008 554.291 108.952C558.899 101.896 565.235 96.424 573.299 92.536C581.507 88.504 590.867 86.488 601.379 86.488C611.027 86.488 619.883 88.216 627.947 91.672C636.011 94.984 642.923 99.664 648.683 105.712C654.587 111.616 658.979 118.6 661.859 126.664L637.667 137.464C634.499 129.4 629.747 123.208 623.411 118.888C617.075 114.424 609.731 112.192 601.379 112.192C596.483 112.192 592.163 113.056 588.419 114.784C584.675 116.368 581.723 118.672 579.563 121.696C577.547 124.576 576.539 128.032 576.539 132.064C576.539 136.528 577.979 140.488 580.859 143.944C583.739 147.256 588.131 149.848 594.035 151.72L623.627 161.008C636.443 165.184 646.019 170.944 652.355 178.288C658.835 185.632 662.075 194.704 662.075 205.504C662.075 214.72 659.699 222.856 654.947 229.912C650.195 236.968 643.643 242.512 635.291 246.544C626.939 250.576 617.219 252.592 606.131 252.592ZM733.239 251.296C719.991 251.296 709.695 247.696 702.351 240.496C695.151 233.152 691.551 222.856 691.551 209.608V157.768H671.247V132.496H673.407C679.167 132.496 683.631 130.984 686.799 127.96C689.967 124.936 691.551 120.544 691.551 114.784V105.712H719.847V132.496H746.847V157.768H719.847V208.096C719.847 211.984 720.495 215.296 721.791 218.032C723.231 220.768 725.391 222.856 728.271 224.296C731.295 225.736 735.111 226.456 739.719 226.456C740.727 226.456 741.879 226.384 743.175 226.24C744.615 226.096 745.983 225.952 747.279 225.808V250C745.263 250.288 742.959 250.576 740.367 250.864C737.775 251.152 735.399 251.296 733.239 251.296ZM818.819 252.592C807.299 252.592 796.787 249.928 787.283 244.6C777.923 239.272 770.435 232 764.819 222.784C759.347 213.568 756.611 203.056 756.611 191.248C756.611 179.44 759.347 168.928 764.819 159.712C770.435 150.496 777.923 143.224 787.283 137.896C796.643 132.568 807.155 129.904 818.819 129.904C830.339 129.904 840.779 132.568 850.139 137.896C859.499 143.224 866.915 150.496 872.387 159.712C878.003 168.784 880.811 179.296 880.811 191.248C880.811 203.056 878.003 213.568 872.387 222.784C866.771 232 859.283 239.272 849.923 244.6C840.563 249.928 830.195 252.592 818.819 252.592ZM818.819 226.672C825.155 226.672 830.699 225.16 835.451 222.136C840.347 219.112 844.163 214.936 846.899 209.608C849.779 204.136 851.219 198.016 851.219 191.248C851.219 184.336 849.779 178.288 846.899 173.104C844.163 167.776 840.347 163.6 835.451 160.576C830.699 157.408 825.155 155.824 818.819 155.824C812.339 155.824 806.651 157.408 801.755 160.576C796.859 163.6 792.971 167.776 790.091 173.104C787.355 178.288 785.987 184.336 785.987 191.248C785.987 198.016 787.355 204.136 790.091 209.608C792.971 214.936 796.859 219.112 801.755 222.136C806.651 225.16 812.339 226.672 818.819 226.672ZM895.789 250V132.496H922.357V158.632L920.197 154.744C922.933 145.96 927.181 139.84 932.941 136.384C938.845 132.928 945.901 131.2 954.109 131.2H961.021V156.256H950.869C942.805 156.256 936.325 158.776 931.429 163.816C926.533 168.712 924.085 175.624 924.085 184.552V250H895.789ZM984.354 297.736C981.186 297.736 978.09 297.448 975.066 296.872C972.042 296.44 969.306 295.648 966.858 294.496V270.736C968.73 271.168 970.962 271.6 973.554 272.032C976.29 272.464 978.81 272.68 981.114 272.68C987.594 272.68 992.274 271.168 995.154 268.144C998.178 265.12 1000.84 261.16 1003.15 256.264L1010.92 238.12L1010.49 261.88L959.298 132.496H989.754L1025.61 227.968H1014.81L1050.45 132.496H1081.12L1029.93 261.88C1026.91 269.512 1023.23 275.992 1018.91 281.32C1014.59 286.648 1009.55 290.68 1003.79 293.416C998.178 296.296 991.698 297.736 984.354 297.736Z" fill="black"/>
<path d="M1265.01 252.592C1254.78 252.592 1245.28 250.72 1236.5 246.976C1227.86 243.232 1220.37 238.048 1214.03 231.424C1207.84 224.656 1203.3 216.808 1200.42 207.88L1224.83 197.296C1228.72 206.512 1234.34 213.784 1241.68 219.112C1249.02 224.296 1257.3 226.888 1266.52 226.888C1271.7 226.888 1276.17 226.096 1279.91 224.512C1283.8 222.784 1286.75 220.48 1288.77 217.6C1290.93 214.72 1292.01 211.264 1292.01 207.232C1292.01 202.48 1290.57 198.592 1287.69 195.568C1284.95 192.4 1280.78 189.952 1275.16 188.224L1244.27 178.288C1231.74 174.4 1222.31 168.568 1215.98 160.792C1209.64 153.016 1206.47 143.872 1206.47 133.36C1206.47 124.144 1208.7 116.008 1213.17 108.952C1217.78 101.896 1224.11 96.424 1232.18 92.536C1240.38 88.504 1249.74 86.488 1260.26 86.488C1269.9 86.488 1278.76 88.216 1286.82 91.672C1294.89 94.984 1301.8 99.664 1307.56 105.712C1313.46 111.616 1317.86 118.6 1320.74 126.664L1296.54 137.464C1293.38 129.4 1288.62 123.208 1282.29 118.888C1275.95 114.424 1268.61 112.192 1260.26 112.192C1255.36 112.192 1251.04 113.056 1247.3 114.784C1243.55 116.368 1240.6 118.672 1238.44 121.696C1236.42 124.576 1235.42 128.032 1235.42 132.064C1235.42 136.528 1236.86 140.488 1239.74 143.944C1242.62 147.256 1247.01 149.848 1252.91 151.72L1282.5 161.008C1295.32 165.184 1304.9 170.944 1311.23 178.288C1317.71 185.632 1320.95 194.704 1320.95 205.504C1320.95 214.72 1318.58 222.856 1313.82 229.912C1309.07 236.968 1302.52 242.512 1294.17 246.544C1285.82 250.576 1276.1 252.592 1265.01 252.592ZM1338.55 250V86.488H1366.84V155.608L1362.96 151.504C1365.69 144.448 1370.16 139.12 1376.35 135.52C1382.68 131.776 1390.03 129.904 1398.38 129.904C1407.02 129.904 1414.65 131.776 1421.28 135.52C1428.04 139.264 1433.3 144.52 1437.04 151.288C1440.79 157.912 1442.66 165.616 1442.66 174.4V250H1414.36V181.096C1414.36 175.912 1413.36 171.448 1411.34 167.704C1409.32 163.96 1406.52 161.08 1402.92 159.064C1399.46 156.904 1395.36 155.824 1390.6 155.824C1386 155.824 1381.89 156.904 1378.29 159.064C1374.69 161.08 1371.88 163.96 1369.87 167.704C1367.85 171.448 1366.84 175.912 1366.84 181.096V250H1338.55ZM1517.56 252.592C1506.04 252.592 1495.53 249.928 1486.03 244.6C1476.67 239.272 1469.18 232 1463.56 222.784C1458.09 213.568 1455.35 203.056 1455.35 191.248C1455.35 179.44 1458.09 168.928 1463.56 159.712C1469.18 150.496 1476.67 143.224 1486.03 137.896C1495.39 132.568 1505.9 129.904 1517.56 129.904C1529.08 129.904 1539.52 132.568 1548.88 137.896C1558.24 143.224 1565.66 150.496 1571.13 159.712C1576.75 168.784 1579.55 179.296 1579.55 191.248C1579.55 203.056 1576.75 213.568 1571.13 222.784C1565.51 232 1558.03 239.272 1548.67 244.6C1539.31 249.928 1528.94 252.592 1517.56 252.592ZM1517.56 226.672C1523.9 226.672 1529.44 225.16 1534.19 222.136C1539.09 219.112 1542.91 214.936 1545.64 209.608C1548.52 204.136 1549.96 198.016 1549.96 191.248C1549.96 184.336 1548.52 178.288 1545.64 173.104C1542.91 167.776 1539.09 163.6 1534.19 160.576C1529.44 157.408 1523.9 155.824 1517.56 155.824C1511.08 155.824 1505.39 157.408 1500.5 160.576C1495.6 163.6 1491.71 167.776 1488.83 173.104C1486.1 178.288 1484.73 184.336 1484.73 191.248C1484.73 198.016 1486.1 204.136 1488.83 209.608C1491.71 214.936 1495.6 219.112 1500.5 222.136C1505.39 225.16 1511.08 226.672 1517.56 226.672ZM1594.53 250V132.496H1621.1V158.632L1618.94 154.744C1621.68 145.96 1625.92 139.84 1631.68 136.384C1637.59 132.928 1644.64 131.2 1652.85 131.2H1659.76V156.256H1649.61C1641.55 156.256 1635.07 158.776 1630.17 163.816C1625.28 168.712 1622.83 175.624 1622.83 184.552V250H1594.53ZM1725.57 251.296C1712.33 251.296 1702.03 247.696 1694.69 240.496C1687.49 233.152 1683.89 222.856 1683.89 209.608V157.768H1663.58V132.496H1665.74C1671.5 132.496 1675.97 130.984 1679.13 127.96C1682.3 124.936 1683.89 120.544 1683.89 114.784V105.712H1712.18V132.496H1739.18V157.768H1712.18V208.096C1712.18 211.984 1712.83 215.296 1714.13 218.032C1715.57 220.768 1717.73 222.856 1720.61 224.296C1723.63 225.736 1727.45 226.456 1732.05 226.456C1733.06 226.456 1734.21 226.384 1735.51 226.24C1736.95 226.096 1738.32 225.952 1739.61 225.808V250C1737.6 250.288 1735.29 250.576 1732.7 250.864C1730.11 251.152 1727.73 251.296 1725.57 251.296Z" fill="black"/>
<rect x="1144.75" y="6.75" width="651.5" height="310.5" rx="60.75" stroke="black" stroke-width="13.5"/>
</g>
</svg>
