<svg width="602" height="108" viewBox="0 0 602 108" fill="none" xmlns="http://www.w3.org/2000/svg">
<path d="M5.184 83V29.36H14.976V74.36H37.944V83H5.184ZM60.4778 83.864C56.6378 83.864 53.1338 82.976 49.9658 81.2C46.8458 79.424 44.3498 77 42.4778 73.928C40.6538 70.856 39.7418 67.352 39.7418 63.416C39.7418 59.48 40.6538 55.976 42.4778 52.904C44.3498 49.832 46.8458 47.408 49.9658 45.632C53.0858 43.856 56.5898 42.968 60.4778 42.968C64.3178 42.968 67.7978 43.856 70.9178 45.632C74.0378 47.408 76.5098 49.832 78.3338 52.904C80.2058 55.928 81.1418 59.432 81.1418 63.416C81.1418 67.352 80.2058 70.856 78.3338 73.928C76.4618 77 73.9658 79.424 70.8458 81.2C67.7258 82.976 64.2698 83.864 60.4778 83.864ZM60.4778 75.224C62.5898 75.224 64.4378 74.72 66.0218 73.712C67.6538 72.704 68.9258 71.312 69.8378 69.536C70.7978 67.712 71.2778 65.672 71.2778 63.416C71.2778 61.112 70.7978 59.096 69.8378 57.368C68.9258 55.592 67.6538 54.2 66.0218 53.192C64.4378 52.136 62.5898 51.608 60.4778 51.608C58.3178 51.608 56.4218 52.136 54.7898 53.192C53.1578 54.2 51.8618 55.592 50.9018 57.368C49.9898 59.096 49.5338 61.112 49.5338 63.416C49.5338 65.672 49.9898 67.712 50.9018 69.536C51.8618 71.312 53.1578 72.704 54.7898 73.712C56.4218 74.72 58.3178 75.224 60.4778 75.224ZM86.1345 83V43.832H94.9905V51.536L94.2705 50.168C95.1825 47.816 96.6705 46.04 98.7345 44.84C100.847 43.592 103.295 42.968 106.079 42.968C108.959 42.968 111.503 43.592 113.711 44.84C115.967 46.088 117.719 47.84 118.967 50.096C120.215 52.304 120.839 54.872 120.839 57.8V83H111.407V60.032C111.407 58.304 111.071 56.816 110.399 55.568C109.727 54.32 108.791 53.36 107.591 52.688C106.439 51.968 105.071 51.608 103.487 51.608C101.951 51.608 100.583 51.968 99.3825 52.688C98.1825 53.36 97.2465 54.32 96.5745 55.568C95.9025 56.816 95.5665 58.304 95.5665 60.032V83H86.1345ZM145.662 98.84C142.734 98.84 140.022 98.36 137.526 97.4C135.03 96.44 132.87 95.096 131.046 93.368C129.27 91.688 127.974 89.696 127.158 87.392L135.942 84.08C136.518 85.904 137.646 87.368 139.326 88.472C141.054 89.624 143.166 90.2 145.662 90.2C147.582 90.2 149.262 89.84 150.702 89.12C152.19 88.4 153.342 87.344 154.158 85.952C154.974 84.608 155.382 82.976 155.382 81.056V72.128L157.182 74.288C155.838 76.64 154.038 78.416 151.782 79.616C149.526 80.816 146.958 81.416 144.078 81.416C140.43 81.416 137.166 80.576 134.286 78.896C131.406 77.216 129.15 74.912 127.518 71.984C125.886 69.056 125.07 65.768 125.07 62.12C125.07 58.424 125.886 55.136 127.518 52.256C129.15 49.376 131.382 47.12 134.214 45.488C137.046 43.808 140.262 42.968 143.862 42.968C146.79 42.968 149.358 43.592 151.566 44.84C153.822 46.04 155.694 47.792 157.182 50.096L155.886 52.472V43.832H164.814V81.056C164.814 84.464 163.974 87.512 162.294 90.2C160.662 92.888 158.406 95 155.526 96.536C152.694 98.072 149.406 98.84 145.662 98.84ZM145.23 72.704C147.246 72.704 148.998 72.272 150.486 71.408C152.022 70.496 153.222 69.248 154.086 67.664C154.95 66.08 155.382 64.256 155.382 62.192C155.382 60.176 154.926 58.376 154.014 56.792C153.15 55.16 151.95 53.888 150.414 52.976C148.926 52.064 147.198 51.608 145.23 51.608C143.262 51.608 141.486 52.064 139.902 52.976C138.318 53.888 137.07 55.16 136.158 56.792C135.294 58.376 134.862 60.176 134.862 62.192C134.862 64.208 135.294 66.008 136.158 67.592C137.07 69.176 138.294 70.424 139.83 71.336C141.414 72.248 143.214 72.704 145.23 72.704ZM202.044 83.864C198.636 83.864 195.468 83.24 192.54 81.992C189.66 80.744 187.164 79.016 185.052 76.808C182.988 74.552 181.476 71.936 180.516 68.96L188.652 65.432C189.948 68.504 191.82 70.928 194.268 72.704C196.716 74.432 199.476 75.296 202.548 75.296C204.276 75.296 205.764 75.032 207.012 74.504C208.308 73.928 209.292 73.16 209.964 72.2C210.684 71.24 211.044 70.088 211.044 68.744C211.044 67.16 210.564 65.864 209.604 64.856C208.692 63.8 207.3 62.984 205.428 62.408L195.132 59.096C190.956 57.8 187.812 55.856 185.7 53.264C183.588 50.672 182.532 47.624 182.532 44.12C182.532 41.048 183.276 38.336 184.764 35.984C186.3 33.632 188.412 31.808 191.1 30.512C193.836 29.168 196.956 28.496 200.46 28.496C203.676 28.496 206.628 29.072 209.316 30.224C212.004 31.328 214.308 32.888 216.228 34.904C218.196 36.872 219.66 39.2 220.62 41.888L212.556 45.488C211.5 42.8 209.916 40.736 207.804 39.296C205.692 37.808 203.244 37.064 200.46 37.064C198.828 37.064 197.388 37.352 196.14 37.928C194.892 38.456 193.908 39.224 193.188 40.232C192.516 41.192 192.18 42.344 192.18 43.688C192.18 45.176 192.66 46.496 193.62 47.648C194.58 48.752 196.044 49.616 198.012 50.24L207.876 53.336C212.148 54.728 215.34 56.648 217.452 59.096C219.612 61.544 220.692 64.568 220.692 68.168C220.692 71.24 219.9 73.952 218.316 76.304C216.732 78.656 214.548 80.504 211.764 81.848C208.98 83.192 205.74 83.864 202.044 83.864ZM244.413 83.432C239.997 83.432 236.565 82.232 234.117 79.832C231.717 77.384 230.517 73.952 230.517 69.536V52.256H223.749V43.832H224.469C226.389 43.832 227.877 43.328 228.933 42.32C229.989 41.312 230.517 39.848 230.517 37.928V34.904H239.949V43.832H248.949V52.256H239.949V69.032C239.949 70.328 240.165 71.432 240.597 72.344C241.077 73.256 241.797 73.952 242.757 74.432C243.765 74.912 245.037 75.152 246.573 75.152C246.909 75.152 247.293 75.128 247.725 75.08C248.205 75.032 248.661 74.984 249.093 74.936V83C248.421 83.096 247.653 83.192 246.789 83.288C245.925 83.384 245.133 83.432 244.413 83.432ZM272.94 83.864C269.1 83.864 265.596 82.976 262.428 81.2C259.308 79.424 256.812 77 254.94 73.928C253.116 70.856 252.204 67.352 252.204 63.416C252.204 59.48 253.116 55.976 254.94 52.904C256.812 49.832 259.308 47.408 262.428 45.632C265.548 43.856 269.052 42.968 272.94 42.968C276.78 42.968 280.26 43.856 283.38 45.632C286.5 47.408 288.972 49.832 290.796 52.904C292.668 55.928 293.604 59.432 293.604 63.416C293.604 67.352 292.668 70.856 290.796 73.928C288.924 77 286.428 79.424 283.308 81.2C280.188 82.976 276.732 83.864 272.94 83.864ZM272.94 75.224C275.052 75.224 276.9 74.72 278.484 73.712C280.116 72.704 281.388 71.312 282.3 69.536C283.26 67.712 283.74 65.672 283.74 63.416C283.74 61.112 283.26 59.096 282.3 57.368C281.388 55.592 280.116 54.2 278.484 53.192C276.9 52.136 275.052 51.608 272.94 51.608C270.78 51.608 268.884 52.136 267.252 53.192C265.62 54.2 264.324 55.592 263.364 57.368C262.452 59.096 261.996 61.112 261.996 63.416C261.996 65.672 262.452 67.712 263.364 69.536C264.324 71.312 265.62 72.704 267.252 73.712C268.884 74.72 270.78 75.224 272.94 75.224ZM298.596 83V43.832H307.452V52.544L306.732 51.248C307.644 48.32 309.06 46.28 310.98 45.128C312.948 43.976 315.3 43.4 318.036 43.4H320.34V51.752H316.956C314.268 51.752 312.108 52.592 310.476 54.272C308.844 55.904 308.028 58.208 308.028 61.184V83H298.596ZM328.118 98.912C327.062 98.912 326.03 98.816 325.022 98.624C324.014 98.48 323.102 98.216 322.286 97.832V89.912C322.91 90.056 323.654 90.2 324.518 90.344C325.43 90.488 326.27 90.56 327.038 90.56C329.198 90.56 330.758 90.056 331.718 89.048C332.726 88.04 333.614 86.72 334.382 85.088L336.974 79.04L336.83 86.96L319.766 43.832H329.918L341.87 75.656H338.27L350.15 43.832H360.374L343.31 86.96C342.302 89.504 341.078 91.664 339.638 93.44C338.198 95.216 336.518 96.56 334.598 97.472C332.726 98.432 330.566 98.912 328.118 98.912Z" fill="black"/>
<path d="M422.336 83.864C418.928 83.864 415.76 83.24 412.832 81.992C409.952 80.744 407.456 79.016 405.344 76.808C403.28 74.552 401.768 71.936 400.808 68.96L408.944 65.432C410.24 68.504 412.112 70.928 414.56 72.704C417.008 74.432 419.768 75.296 422.84 75.296C424.568 75.296 426.056 75.032 427.304 74.504C428.6 73.928 429.584 73.16 430.256 72.2C430.976 71.24 431.336 70.088 431.336 68.744C431.336 67.16 430.856 65.864 429.896 64.856C428.984 63.8 427.592 62.984 425.72 62.408L415.424 59.096C411.248 57.8 408.104 55.856 405.992 53.264C403.88 50.672 402.824 47.624 402.824 44.12C402.824 41.048 403.568 38.336 405.056 35.984C406.592 33.632 408.704 31.808 411.392 30.512C414.128 29.168 417.248 28.496 420.752 28.496C423.968 28.496 426.92 29.072 429.608 30.224C432.296 31.328 434.6 32.888 436.52 34.904C438.488 36.872 439.952 39.2 440.912 41.888L432.848 45.488C431.792 42.8 430.208 40.736 428.096 39.296C425.984 37.808 423.536 37.064 420.752 37.064C419.12 37.064 417.68 37.352 416.432 37.928C415.184 38.456 414.2 39.224 413.48 40.232C412.808 41.192 412.472 42.344 412.472 43.688C412.472 45.176 412.952 46.496 413.912 47.648C414.872 48.752 416.336 49.616 418.304 50.24L428.168 53.336C432.44 54.728 435.632 56.648 437.744 59.096C439.904 61.544 440.984 64.568 440.984 68.168C440.984 71.24 440.192 73.952 438.608 76.304C437.024 78.656 434.84 80.504 432.056 81.848C429.272 83.192 426.032 83.864 422.336 83.864ZM446.849 83V28.496H456.281V51.536L454.985 50.168C455.897 47.816 457.385 46.04 459.449 44.84C461.561 43.592 464.009 42.968 466.793 42.968C469.673 42.968 472.217 43.592 474.425 44.84C476.681 46.088 478.433 47.84 479.681 50.096C480.929 52.304 481.553 54.872 481.553 57.8V83H472.121V60.032C472.121 58.304 471.785 56.816 471.113 55.568C470.441 54.32 469.505 53.36 468.305 52.688C467.153 51.968 465.785 51.608 464.201 51.608C462.665 51.608 461.297 51.968 460.097 52.688C458.897 53.36 457.961 54.32 457.289 55.568C456.617 56.816 456.281 58.304 456.281 60.032V83H446.849ZM506.521 83.864C502.681 83.864 499.177 82.976 496.009 81.2C492.889 79.424 490.393 77 488.521 73.928C486.697 70.856 485.785 67.352 485.785 63.416C485.785 59.48 486.697 55.976 488.521 52.904C490.393 49.832 492.889 47.408 496.009 45.632C499.129 43.856 502.633 42.968 506.521 42.968C510.361 42.968 513.841 43.856 516.961 45.632C520.081 47.408 522.553 49.832 524.377 52.904C526.249 55.928 527.185 59.432 527.185 63.416C527.185 67.352 526.249 70.856 524.377 73.928C522.505 77 520.009 79.424 516.889 81.2C513.769 82.976 510.313 83.864 506.521 83.864ZM506.521 75.224C508.633 75.224 510.481 74.72 512.065 73.712C513.697 72.704 514.969 71.312 515.881 69.536C516.841 67.712 517.321 65.672 517.321 63.416C517.321 61.112 516.841 59.096 515.881 57.368C514.969 55.592 513.697 54.2 512.065 53.192C510.481 52.136 508.633 51.608 506.521 51.608C504.361 51.608 502.465 52.136 500.833 53.192C499.201 54.2 497.905 55.592 496.945 57.368C496.033 59.096 495.577 61.112 495.577 63.416C495.577 65.672 496.033 67.712 496.945 69.536C497.905 71.312 499.201 72.704 500.833 73.712C502.465 74.72 504.361 75.224 506.521 75.224ZM532.178 83V43.832H541.034V52.544L540.314 51.248C541.226 48.32 542.642 46.28 544.562 45.128C546.53 43.976 548.882 43.4 551.618 43.4H553.922V51.752H550.538C547.85 51.752 545.69 52.592 544.058 54.272C542.426 55.904 541.61 58.208 541.61 61.184V83H532.178ZM575.858 83.432C571.442 83.432 568.01 82.232 565.562 79.832C563.162 77.384 561.962 73.952 561.962 69.536V52.256H555.194V43.832H555.914C557.834 43.832 559.322 43.328 560.378 42.32C561.434 41.312 561.962 39.848 561.962 37.928V34.904H571.394V43.832H580.394V52.256H571.394V69.032C571.394 70.328 571.61 71.432 572.042 72.344C572.522 73.256 573.242 73.952 574.202 74.432C575.21 74.912 576.482 75.152 578.018 75.152C578.354 75.152 578.738 75.128 579.17 75.08C579.65 75.032 580.106 74.984 580.538 74.936V83C579.866 83.096 579.098 83.192 578.234 83.288C577.37 83.384 576.578 83.432 575.858 83.432Z" fill="black"/>
<rect x="382.25" y="2.25" width="217.5" height="103.5" rx="20.25" stroke="black" stroke-width="4.5"/>
</svg>
